<?xml version="1.0" encoding="UTF-8"?><svg id="_레이어_2" xmlns="http://www.w3.org/2000/svg" viewBox="0 0 113.3858 113.38654"><defs><style>.cls-1{fill:#2b3278;}</style></defs><g id="_레이어_1-2"><path class="cls-1" d="m96.80396,16.60956C86.09326,5.89886,71.85327,0,56.70679,0S27.31952,5.89886,16.60956,16.60956C5.89886,27.31952,0,41.55951,0,56.70673s5.89886,29.38727,16.60956,40.09723c.51843.51837,1.04883,1.02106,1.58899,1.50952,10.83881,10.04175,24.66754,15.07306,38.50824,15.07306,14.51941,0,29.04333-5.52875,40.09717-16.58258,22.10913-22.10992,22.10913-58.08527,0-80.1944ZM20.74719,95.4884c-.48621-.45172-.97314-.90198-1.44666-1.37543-.46295-.46301-.9057-.94019-1.34998-1.41669-6.54761-7.2204-10.13159-16.48523-10.13159-26.30145,0-10.47095,4.07764-20.31488,11.48157-27.71881,7.40393-7.4032,17.24786-11.4809,27.71814-11.4809,2.03021,0,4.03644.15735,6.00671.4585-6.2345.7829-12.26367,3.55475-17.04034,8.33142-11.42615,11.42615-11.42615,30.01727,0,41.44269,5.71307,5.71307,13.21741,8.56958,20.72174,8.56958,7.50354,0,15.00861-2.85651,20.72095-8.56958,4.77661-4.77667,7.54852-10.80664,8.33142-17.04114.30115,1.97028.45923,3.97729.45923,6.00824,0,10.47101-4.0777,20.31342-11.48163,27.71814-7.40393,7.40314-17.24786,11.48083-27.71808,11.48083-9.80273,0-19.05487-3.57422-26.27148-10.10541Zm24.92596-27.74805c1.7066,1.70581,3.94806,2.55908,6.18958,2.55908s4.48297-.85327,6.18951-2.55908v-.00073c.26898-.26898.50793-.55438.73492-.84735-.11987,2.85358-1.25256,5.67114-3.4259,7.84448-4.59979,4.59979-12.08466,4.59979-16.68524,0-4.59979-4.59985-4.59979-12.08472,0-16.6853,2.17334-2.17255,4.99091-3.30603,7.84442-3.42584-.29437.22845-.58057.4682-.84729.73492-3.41315,3.41315-3.41315,8.96661,0,12.37982Zm2.69098-9.6889c.9342-.93341,2.17706-1.44812,3.4986-1.44812,1.15295,0,2.24597.39185,3.12622,1.11255.1236.1131.25244.21649.37231.33557.12061.12067.22479.25098.33942.3761,1.58142,1.9411,1.46906,4.81262-.33942,6.62109-1.92908,1.92828-5.06805,1.92908-6.99713,0-1.92908-1.92834-1.92908-5.06805,0-6.99719Zm9.68811,19.37628c5.86969-5.86969,6.05847-15.28284.6001-21.40198-.18652-.22925-.38733-.45099-.6001-.66522-.21124-.21057-.43152-.40833-.65924-.59485-6.11987-5.46362-15.53528-5.27631-21.40796.59485-2.06842,2.06915-3.41614,4.58258-4.07843,7.23309-1.96051-8.32092.29297-17.44116,6.76941-23.9176,4.97144-4.9707,11.5011-7.45636,18.03076-7.45636s13.05853,2.48566,18.02997,7.45636c9.94208,9.94208,9.94208,26.11865,0,36.06073-6.47644,6.47571-15.59674,8.72992-23.91687,6.76935,2.65051-.66223,5.16394-2.00995,7.23236-4.07837Zm36.06073,16.68524c-11.83295,11.83215-27.92035,16.86279-43.38147,15.12024,10.08588-.85779,19.45563-5.18866,26.69623-12.42926,8.12311-8.12317,12.59637-18.92224,12.59637-30.40912,0-11.48755-4.47327-22.28741-12.59637-30.40979-8.12238-8.12238-18.92224-12.59558-30.40906-12.59558s-22.28674,4.47321-30.40912,12.59558c-7.27728,7.27728-11.6142,16.70471-12.44049,26.84833-.23151-2.01978-.36261-4.06268-.36261-6.12665,0-14.12988,5.50256-27.41467,15.49408-37.40619S42.57617,3.80646,56.70679,3.80646c14.12988,0,27.41467,5.50256,37.40619,15.49408,20.62585,20.62506,20.62585,54.18658,0,74.81244Z"/></g></svg>